<svg width="960" height="600" version="1.1" xmlns="http://www.w3.org/2000/svg"><g></g><g transform="translate(480,300)scale(1,1)"><text text-anchor="middle" transform="translate(69,27)rotate(-45)scale(0.999999982885729,0.999999982885729)" style="font-size: 100px; font-family: Impact; fill: rgb(132, 60, 57);">COVID19</text><text text-anchor="middle" transform="translate(-120,-102)rotate(-59.99999955470795)scale(0.9999999865388264,0.9999999865388264)" style="font-size: 100px; font-family: Impact; fill: rgb(214, 97, 107);">vacunas</text><text text-anchor="middle" transform="translate(-35,-40)rotate(30.00000044529205)scale(0.9999999865388264,0.9999999865388264)" style="font-size: 28px; font-family: Impact; fill: rgb(231, 150, 156);">para</text><text text-anchor="middle" transform="translate(-182,246)rotate(0)scale(1,1)" style="font-size: 46px; font-family: Impact; fill: rgb(123, 65, 115);">comunicación</text><text text-anchor="middle" transform="translate(125,125)rotate(-30.00000044529205)skewX(0)scale(0.9999999865388264,0.9999999865388264)" style="font-size: 28px; font-family: Impact; fill: rgb(222, 158, 214);">del</text><text text-anchor="middle" transform="translate(-68,36)rotate(15.000000120055855)skewX(1.590277362176623e-15)scale(0.9999999865150161,0.9999999865150161)" style="font-size: 10px; font-family: Impact; fill: rgb(82, 84, 163);">al</text><text text-anchor="middle" transform="translate(-230,110)rotate(15.000000120055851)skewX(1.590277362176623e-15)scale(0.9999999865150161,0.9999999865150161)" style="font-size: 64px; font-family: Impact; fill: rgb(99, 121, 57);">salud</text><text text-anchor="middle" transform="translate(-249,166)rotate(30.00000044529205)skewX(0)scale(0.9999999865388264,0.9999999865388264)" style="font-size: 64px; font-family: Impact; fill: rgb(181, 207, 107);">contra</text><text text-anchor="middle" transform="translate(-91,144)rotate(0)scale(1,1)" style="font-size: 10px; font-family: Impact; fill: rgb(173, 73, 74);">sin</text><text text-anchor="middle" transform="translate(-18,182)rotate(59.999999554707955)scale(0.9999999865388264,0.9999999865388264)" style="font-size: 28px; font-family: Impact; fill: rgb(123, 65, 115);">general</text><text text-anchor="middle" transform="translate(241,71)rotate(0)scale(1,1)" style="font-size: 28px; font-family: Impact; fill: rgb(165, 81, 148);">personal</text><text text-anchor="middle" transform="translate(189,-73)rotate(-30.000000445292052)scale(0.9999999865388264,0.9999999865388264)" style="font-size: 10px; font-family: Impact; fill: rgb(222, 158, 214);">relación</text><text text-anchor="middle" transform="translate(-185,-128)rotate(-45)scale(0.999999982885729,0.999999982885729)" style="font-size: 10px; font-family: Impact; fill: rgb(57, 59, 121);">son</text><text text-anchor="middle" transform="translate(-148,78)rotate(0)scale(1,1)" style="font-size: 28px; font-family: Impact; fill: rgb(82, 84, 163);">virus</text><text text-anchor="middle" transform="translate(175,-118)" style="font-size: 10px; font-family: Impact; fill: rgb(156, 158, 222);">sus</text><text text-anchor="middle" transform="translate(72,-144)rotate(45)skewX(0)scale(0.999999982885729,0.999999982885729)" style="font-size: 10px; font-family: Impact; fill: rgb(206, 219, 156);">investigación</text><text text-anchor="middle" transform="translate(-132,27)rotate(-30.000000445292052)scale(0.9999999865388264,0.9999999865388264)" style="font-size: 28px; font-family: Impact; fill: rgb(140, 109, 49);">desarrollo</text><text text-anchor="middle" transform="translate(121,-139)rotate(45)scale(0.999999982885729,0.999999982885729)" style="font-size: 28px; font-family: Impact; fill: rgb(231, 186, 82);">seguridad</text><text text-anchor="middle" transform="translate(98,153)" style="font-size: 28px; font-family: Impact; fill: rgb(231, 203, 148);">población</text><text text-anchor="middle" transform="translate(-264,-177)rotate(59.999999554707955)scale(0.9999999865388264,0.9999999865388264)" style="font-size: 28px; font-family: Impact; fill: rgb(214, 97, 107);">grupo</text><text text-anchor="middle" transform="translate(19,-139)rotate(30.00000044529205)scale(0.9999999865388264,0.9999999865388264)" style="font-size: 28px; font-family: Impact; fill: rgb(231, 150, 156);">especialistas</text><text text-anchor="middle" transform="translate(-341,-100)rotate(-15.000000120055859)skewX(-1.590277362176623e-15)scale(0.9999999865150161,0.9999999865150161)" style="font-size: 28px; font-family: Impact; fill: rgb(123, 65, 115);">enfermedades</text><text text-anchor="middle" transform="translate(-17,-98)rotate(30.00000044529205)scale(0.9999999865388264,0.9999999865388264)" style="font-size: 28px; font-family: Impact; fill: rgb(165, 81, 148);">estrategia</text><text text-anchor="middle" transform="translate(86,-61)rotate(59.99999955470795)scale(0.9999999865388264,0.9999999865388264)" style="font-size: 28px; font-family: Impact; fill: rgb(206, 109, 189);">o</text><text text-anchor="middle" transform="translate(-217,23)rotate(59.99999955470795)scale(0.9999999865388264,0.9999999865388264)" style="font-size: 10px; font-family: Impact; fill: rgb(222, 158, 214);">acción</text><text text-anchor="middle" transform="translate(199,143)rotate(-15.000000120055851)skewX(-1.590277362176623e-15)scale(0.9999999865150161,0.9999999865150161)" style="font-size: 10px; font-family: Impact; fill: rgb(132, 60, 57);">central</text><text text-anchor="middle" transform="translate(149,83)rotate(-15.000000120055851)skewX(-1.590277362176623e-15)scale(0.9999999865150161,0.9999999865150161)" style="font-size: 10px; font-family: Impact; fill: rgb(57, 59, 121);">gestión</text><text text-anchor="middle" transform="translate(19,79)rotate(30.000000445292052)scale(0.9999999865388264,0.9999999865388264)" style="font-size: 10px; font-family: Impact; fill: rgb(82, 84, 163);">lecciones</text><text text-anchor="middle" transform="translate(-173,-125)rotate(-59.999999554707955)scale(0.9999999865388264,0.9999999865388264)" style="font-size: 10px; font-family: Impact; fill: rgb(107, 110, 207);">aprender</text><text text-anchor="middle" transform="translate(137,-8)rotate(0)scale(1,1)" style="font-size: 10px; font-family: Impact; fill: rgb(99, 121, 57);">científico</text><text text-anchor="middle" transform="translate(-97,-44)rotate(59.999999554707955)scale(0.9999999865388264,0.9999999865388264)" style="font-size: 10px; font-family: Impact; fill: rgb(140, 109, 49);">adecuada</text><text text-anchor="middle" transform="translate(-126,41)rotate(-45)skewX(0)scale(0.999999982885729,0.999999982885729)" style="font-size: 10px; font-family: Impact; fill: rgb(189, 158, 57);">difusión</text><text text-anchor="middle" transform="translate(226,-80)rotate(-59.99999955470795)scale(0.9999999865388264,0.9999999865388264)" style="font-size: 10px; font-family: Impact; fill: rgb(231, 186, 82);">entre</text><text text-anchor="middle" transform="translate(50,71)rotate(0)scale(1,1)" style="font-size: 10px; font-family: Impact; fill: rgb(231, 203, 148);">público</text><text text-anchor="middle" transform="translate(-71,-115)rotate(45)scale(0.999999982885729,0.999999982885729)" style="font-size: 10px; font-family: Impact; fill: rgb(173, 73, 74);">comunicado</text><text text-anchor="middle" transform="translate(221,-18)rotate(-45)scale(0.999999982885729,0.999999982885729)" style="font-size: 10px; font-family: Impact; fill: rgb(214, 97, 107);">accesible</text><text text-anchor="middle" transform="translate(-51,-150)rotate(0)scale(1,1)" style="font-size: 10px; font-family: Impact; fill: rgb(123, 65, 115);">comprensión</text><text text-anchor="middle" transform="translate(12,-59)rotate(0)scale(1,1)" style="font-size: 10px; font-family: Impact; fill: rgb(165, 81, 148);">aspectos</text><text text-anchor="middle" transform="translate(-93,-66)rotate(30.00000044529205)skewX(0)scale(0.9999999865388264,0.9999999865388264)" style="font-size: 10px; font-family: Impact; fill: rgb(206, 109, 189);">preguntas</text><text text-anchor="middle" transform="translate(151,-33)rotate(-15.000000120055855)skewX(-1.590277362176623e-15)scale(0.9999999865150161,0.9999999865150161)" style="font-size: 10px; font-family: Impact; fill: rgb(222, 158, 214);">generan</text><text text-anchor="middle" transform="translate(-134,-27)rotate(0)skewX(0)scale(1,1)" style="font-size: 10px; font-family: Impact; fill: rgb(57, 59, 121);">características</text><text text-anchor="middle" transform="translate(-9,-128)rotate(30.00000044529205)scale(0.9999999865388264,0.9999999865388264)" style="font-size: 10px; font-family: Impact; fill: rgb(82, 84, 163);">SARSCoV2</text><text text-anchor="middle" transform="translate(234,37)rotate(59.999999554707955)skewX(0)scale(0.9999999865388264,0.9999999865388264)" style="font-size: 10px; font-family: Impact; fill: rgb(107, 110, 207);">Cómo</text><text text-anchor="middle" transform="translate(-50,-4)rotate(59.99999955470794)skewX(0)scale(0.9999999865388264,0.9999999865388264)" style="font-size: 10px; font-family: Impact; fill: rgb(156, 158, 222);">surgió</text><text text-anchor="middle" transform="translate(-63,24)rotate(-15.000000120055851)skewX(-1.590277362176623e-15)scale(0.9999999865150161,0.9999999865150161)" style="font-size: 10px; font-family: Impact; fill: rgb(140, 162, 82);">transmite</text><text text-anchor="middle" transform="translate(57,47)rotate(45)scale(0.999999982885729,0.999999982885729)" style="font-size: 10px; font-family: Impact; fill: rgb(181, 207, 107);">persona</text><text text-anchor="middle" transform="translate(76,47)rotate(15.000000120055855)skewX(1.590277362176623e-15)scale(0.9999999865150161,0.9999999865150161)" style="font-size: 10px; font-family: Impact; fill: rgb(206, 219, 156);">otra</text><text text-anchor="middle" transform="translate(-82,131)rotate(-15.000000120055855)skewX(-1.590277362176623e-15)scale(0.9999999865150161,0.9999999865150161)" style="font-size: 10px; font-family: Impact; fill: rgb(140, 109, 49);">cambios</text><text text-anchor="middle" transform="translate(217,-107)rotate(-45)scale(0.999999982885729,0.999999982885729)" style="font-size: 10px; font-family: Impact; fill: rgb(231, 203, 148);">tiempo</text><text text-anchor="middle" transform="translate(-62,-39)rotate(15.000000120055855)skewX(1.590277362176623e-15)scale(0.9999999865150161,0.9999999865150161)" style="font-size: 10px; font-family: Impact; fill: rgb(214, 97, 107);">estudian</text><text text-anchor="middle" transform="translate(201,118)rotate(-30.00000044529205)scale(0.9999999865388264,0.9999999865388264)" style="font-size: 10px; font-family: Impact; fill: rgb(231, 150, 156);">enfermos</text><text text-anchor="middle" transform="translate(168,-47)rotate(30.00000044529205)scale(0.9999999865388264,0.9999999865388264)" style="font-size: 10px; font-family: Impact; fill: rgb(123, 65, 115);">contactos</text><text text-anchor="middle" transform="translate(41,-104)rotate(45)scale(0.999999982885729,0.999999982885729)" style="font-size: 10px; font-family: Impact; fill: rgb(165, 81, 148);">tratamientos</text><text text-anchor="middle" transform="translate(85,-49)rotate(45)scale(0.999999982885729,0.999999982885729)" style="font-size: 10px; font-family: Impact; fill: rgb(206, 109, 189);">secuelas</text><text text-anchor="middle" transform="translate(-108,149)rotate(45)scale(0.999999982885729,0.999999982885729)" style="font-size: 10px; font-family: Impact; fill: rgb(222, 158, 214);">medidas</text><text text-anchor="middle" transform="translate(-73,143)rotate(15.000000120055851)skewX(1.590277362176623e-15)scale(0.9999999865150161,0.9999999865150161)" style="font-size: 10px; font-family: Impact; fill: rgb(57, 59, 121);"></text><text text-anchor="middle" transform="translate(-139,-5)rotate(-30.00000044529205)skewX(0)scale(0.9999999865388264,0.9999999865388264)" style="font-size: 10px; font-family: Impact; fill: rgb(57, 59, 121);">prevención</text><text text-anchor="middle" transform="translate(-284,-146)rotate(0)skewX(0)scale(1,1)" style="font-size: 10px; font-family: Impact; fill: rgb(206, 219, 156);">emergencia</text><text text-anchor="middle" transform="translate(4,138)rotate(30.00000044529205)scale(0.9999999865388264,0.9999999865388264)" style="font-size: 10px; font-family: Impact; fill: rgb(140, 109, 49);">sanitaria</text><text text-anchor="middle" transform="translate(-85,-112)rotate(45.00000000000001)scale(0.999999982885729,0.999999982885729)" style="font-size: 10px; font-family: Impact; fill: rgb(206, 109, 189);">facilitar</text><text text-anchor="middle" transform="translate(135,3)rotate(-30.000000445292045)scale(0.9999999865388264,0.9999999865388264)" style="font-size: 10px; font-family: Impact; fill: rgb(82, 84, 163);">de</text><text text-anchor="middle" transform="translate(-37,85)rotate(45)scale(0.999999982885729,0.999999982885729)" style="font-size: 10px; font-family: Impact; fill: rgb(231, 203, 148);">epidemia</text><text text-anchor="middle" transform="translate(257,40)rotate(15.000000120055855)skewX(1.590277362176623e-15)scale(0.9999999865150161,0.9999999865150161)" style="font-size: 10px; font-family: Impact; fill: rgb(173, 73, 74);">cifras</text><text text-anchor="middle" transform="translate(-5,-9)rotate(-59.99999955470795)scale(0.9999999865388264,0.9999999865388264)" style="font-size: 10px; font-family: Impact; fill: rgb(214, 97, 107);">exactas</text><text text-anchor="middle" transform="translate(105,20)rotate(-59.99999955470795)scale(0.9999999865388264,0.9999999865388264)" style="font-size: 10px; font-family: Impact; fill: rgb(123, 65, 115);">tendencia</text><text text-anchor="middle" transform="translate(-43,-68)rotate(30.00000044529205)skewX(0)scale(0.9999999865388264,0.9999999865388264)" style="font-size: 10px; font-family: Impact; fill: rgb(165, 81, 148);">proyecciones</text><text text-anchor="middle" transform="translate(-234,-184)rotate(30.00000044529205)scale(0.9999999865388264,0.9999999865388264)" style="font-size: 10px; font-family: Impact; fill: rgb(206, 109, 189);">modelos</text><text text-anchor="middle" transform="translate(131,25)rotate(-45)scale(0.999999982885729,0.999999982885729)" style="font-size: 10px; font-family: Impact; fill: rgb(222, 158, 214);">matemáticos</text><text text-anchor="middle" transform="translate(-233,-20)rotate(-59.99999955470795)scale(0.9999999865388264,0.9999999865388264)" style="font-size: 10px; font-family: Impact; fill: rgb(107, 110, 207);">fundamental</text><text text-anchor="middle" transform="translate(167,109)rotate(-59.99999955470795)scale(0.9999999865388264,0.9999999865388264)" style="font-size: 10px; font-family: Impact; fill: rgb(156, 158, 222);">satisfacer</text><text text-anchor="middle" transform="translate(-108,85)rotate(-59.99999955470795)scale(0.9999999865388264,0.9999999865388264)" style="font-size: 10px; font-family: Impact; fill: rgb(99, 121, 57);">demanda</text><text text-anchor="middle" transform="translate(194,95)rotate(-45)scale(0.999999982885729,0.999999982885729)" style="font-size: 10px; font-family: Impact; fill: rgb(181, 207, 107);">promover</text><text text-anchor="middle" transform="translate(164,10)rotate(-45)skewX(0)scale(0.999999982885729,0.999999982885729)" style="font-size: 10px; font-family: Impact; fill: rgb(206, 219, 156);">confianza</text><text text-anchor="middle" transform="translate(-148,-77)rotate(30.000000445292045)scale(0.9999999865388264,0.9999999865388264)" style="font-size: 10px; font-family: Impact; fill: rgb(189, 158, 57);">estrategias</text><text text-anchor="middle" transform="translate(-147,-181)rotate(-45)skewX(0)scale(0.999999982885729,0.999999982885729)" style="font-size: 10px; font-family: Impact; fill: rgb(173, 73, 74);">trascendente</text><text text-anchor="middle" transform="translate(-75,46)rotate(0)scale(1,1)" style="font-size: 10px; font-family: Impact; fill: rgb(214, 97, 107);">intervención</text><text text-anchor="middle" transform="translate(-153,-8)rotate(-30.00000044529205)scale(0.9999999865388264,0.9999999865388264)" style="font-size: 10px; font-family: Impact; fill: rgb(231, 150, 156);">reducir</text><text text-anchor="middle" transform="translate(-177,29)rotate(-45)scale(0.999999982885729,0.999999982885729)" style="font-size: 10px; font-family: Impact; fill: rgb(123, 65, 115);">daño</text><text text-anchor="middle" transform="translate(-30,-17)rotate(-30.00000044529205)scale(0.9999999865388264,0.9999999865388264)" style="font-size: 10px; font-family: Impact; fill: rgb(222, 158, 214);">sobre</text><text text-anchor="middle" transform="translate(172,-20)rotate(0)skewX(0)scale(1,1)" style="font-size: 10px; font-family: Impact; fill: rgb(57, 59, 121);">eficacia</text><text text-anchor="middle" transform="translate(250,83)rotate(15.000000120055851)skewX(1.590277362176623e-15)scale(0.9999999865150161,0.9999999865150161)" style="font-size: 10px; font-family: Impact; fill: rgb(82, 84, 163);">calidad</text><text text-anchor="middle" transform="translate(-280,-101)rotate(0)skewX(0)scale(1,1)" style="font-size: 10px; font-family: Impact; fill: rgb(107, 110, 207);">utilidad</text><text text-anchor="middle" transform="translate(226,97)rotate(0)scale(1,1)" style="font-size: 10px; font-family: Impact; fill: rgb(156, 158, 222);">llegue</text><text text-anchor="middle" transform="translate(251,-111)rotate(-30.00000044529205)skewX(0)scale(0.9999999865388264,0.9999999865388264)" style="font-size: 10px; font-family: Impact; fill: rgb(99, 121, 57);">distorsiones</text><text text-anchor="middle" transform="translate(133,35)rotate(30.00000044529205)scale(0.9999999865388264,0.9999999865388264)" style="font-size: 10px; font-family: Impact; fill: rgb(140, 162, 82);">ni</text><text text-anchor="middle" transform="translate(28,-193)rotate(-15.000000120055855)skewX(-1.590277362176623e-15)scale(0.9999999865150161,0.9999999865150161)" style="font-size: 10px; font-family: Impact; fill: rgb(181, 207, 107);">interpretaciones</text><text text-anchor="middle" transform="translate(188,2)rotate(-45)scale(0.999999982885729,0.999999982885729)" style="font-size: 10px; font-family: Impact; fill: rgb(206, 219, 156);">erróneas</text><text text-anchor="middle" transform="translate(-203,-43)rotate(45)scale(0.999999982885729,0.999999982885729)" style="font-size: 10px; font-family: Impact; fill: rgb(189, 158, 57);">riesgo</text><text text-anchor="middle" transform="translate(-202,-82)rotate(-59.99999955470795)scale(0.9999999865388264,0.9999999865388264)" style="font-size: 10px; font-family: Impact; fill: rgb(231, 150, 156);">confiable</text><text text-anchor="middle" transform="translate(108,-133)rotate(15.000000120055851)skewX(1.590277362176623e-15)scale(0.9999999865150161,0.9999999865150161)" style="font-size: 10px; font-family: Impact; fill: rgb(123, 65, 115);">útil</text><text text-anchor="middle" transform="translate(-166,145)rotate(45)skewX(0)scale(0.999999982885729,0.999999982885729)" style="font-size: 10px; font-family: Impact; fill: rgb(165, 81, 148);">coadyuvar</text><text text-anchor="middle" transform="translate(-304,-52)rotate(-15.000000120055855)skewX(-1.590277362176623e-15)scale(0.9999999865150161,0.9999999865150161)" style="font-size: 10px; font-family: Impact; fill: rgb(57, 59, 121);">servicios</text><text text-anchor="middle" transform="translate(300,-101)rotate(59.99999955470795)scale(0.9999999865388264,0.9999999865388264)" style="font-size: 10px; font-family: Impact; fill: rgb(82, 84, 163);">informativos</text><text text-anchor="middle" transform="translate(-292,168)rotate(-45)scale(0.999999982885729,0.999999982885729)" style="font-size: 10px; font-family: Impact; fill: rgb(107, 110, 207);">ofrecer</text><text text-anchor="middle" transform="translate(-73,10)rotate(-30.000000445292045)scale(0.9999999865388264,0.9999999865388264)" style="font-size: 10px; font-family: Impact; fill: rgb(156, 158, 222);">técnica</text><text text-anchor="middle" transform="translate(181,-183)rotate(15.000000120055855)skewX(1.590277362176623e-15)scale(0.9999999865150161,0.9999999865150161)" style="font-size: 82px; font-family: Impact; fill: rgb(206, 109, 189);">pandemia</text><text text-anchor="middle" transform="translate(185,48)rotate(-30.00000044529205)scale(0.9999999865388264,0.9999999865388264)" style="font-size: 64px; font-family: Impact; fill: rgb(206, 219, 156);">vacunación</text><text text-anchor="middle" transform="translate(-225,-81)rotate(-60)" style="font-size: 64px; font-family: Impact; fill: rgb(107, 110, 207);">Observatorio</text></g></svg>